<?xml version="1.0" encoding="UTF-8"?>
<svg id="Layer_2" data-name="Layer 2" xmlns="http://www.w3.org/2000/svg" viewBox="0 0 300 300">
  <defs>
    <style>
      .cls-1 {
        fill: #1e1e1e;
      }

      .cls-2 {
        fill: #684552;
      }

      .cls-3 {
        fill: #282828;
      }

      .cls-4 {
        fill: #7f7f7f;
      }
    </style>
  </defs>
  <g id="Layer_2-2" data-name="Layer 2">
    <g>
      <rect class="cls-4" width="300" height="300"/>
      <path d="M76.38,45.89v51.35l61.8-24.23-48.53-34.02c-5.58-3.91-13.26.08-13.26,6.9Z"/>
      <path d="M252.13,300H54.38l17.87-186.53c2.63-27.45,25.69-48.41,53.27-48.41h55.48c27.58,0,50.63,20.96,53.27,48.41l17.87,186.53Z"/>
      <path d="M230.22,45.89v51.35s-61.8-24.23-61.8-24.23l48.53-34.02c5.58-3.91,13.26.08,13.26,6.9Z"/>
      <g>
        <path class="cls-3" d="M98.6,171.02h-18.96c-13.09,0-23.7-10.61-23.7-23.7v-24.14c0-5.81,4.18-10.76,9.9-11.79,10.11-1.82,22.1-3.17,35.57-3.15,13.29.01,25.13,1.35,35.14,3.16,5.72,1.03,9.89,5.98,9.89,11.79h0c0,26.42-21.42,47.84-47.84,47.84Z"/>
        <path class="cls-3" d="M209.47,171.02h18.96c13.09,0,23.7-10.61,23.7-23.7v-24.14c0-5.81-4.18-10.76-9.9-11.79-10.11-1.82-22.1-3.17-35.57-3.15-13.29.01-25.13,1.35-35.14,3.16-5.72,1.03-9.89,5.98-9.89,11.79h0c0,26.42,21.42,47.84,47.84,47.84Z"/>
      </g>
      <path class="cls-1" d="M153.97,118.06c3.58,0,6.89.63,9.63,1.69l4.63-7.25h-28.51l4.63,7.25c2.74-1.07,6.05-1.69,9.63-1.69Z"/>
      <path class="cls-2" d="M157,174.65l4.67-3.81c3.5-2.85,1.48-8.51-3.03-8.51h-9.34c-4.51,0-6.53,5.66-3.03,8.51l4.67,3.81c1.76,1.44,4.3,1.44,6.06,0Z"/>
    </g>
  </g>
</svg>